<svg height="512pt" viewBox="0 0 512 512" width="512pt" xmlns="http://www.w3.org/2000/svg" xmlns:xlink="http://www.w3.org/1999/xlink"><linearGradient id="a" gradientUnits="userSpaceOnUse" x1="0" x2="512" y1="256" y2="256"><stop offset="0" stop-color="#00f38d"/><stop offset="1" stop-color="#009eff"/></linearGradient><path d="m512 256c0 141.386719-114.613281 256-256 256s-256-114.613281-256-256 114.613281-256 256-256 256 114.613281 256 256zm0 0" fill="url(#a)"/><g fill="#fff"><path d="m269.386719 142.214844c0 7.347656-5.957031 13.304687-13.304688 13.304687-7.351562 0-13.308593-5.957031-13.308593-13.304687 0-7.351563 5.957031-13.308594 13.308593-13.308594 7.347657 0 13.304688 5.957031 13.304688 13.308594zm0 0"/><path d="m374.792969 164.183594v-46.589844c0-22.945312-18.667969-41.613281-41.613281-41.613281h-153.691407c-22.945312 0-41.613281 18.667969-41.613281 41.613281v46.09375l-53.894531 40.195312v174.523438c0 22.945312 18.667969 41.613281 41.613281 41.613281h260.8125c22.945312 0 41.613281-18.667969 41.613281-41.613281v-174.523438zm0 37.425781 11.980469 8.933594-11.980469 8.910156zm-30-84.015625v13.386719c-3.660157-1.148438-7.550781-1.769531-11.613281-1.769531-6.402344 0-11.613282-5.210938-11.613282-11.613282 0-2.625-.261718-6.847656-1.53125-11.613281h13.144532c6.402343-.003906 11.613281 5.207031 11.613281 11.609375zm-72.824219-11.613281c19.597656 0 19.597656 7.273437 19.597656 11.613281 0 22.945312 18.667969 41.613281 41.613282 41.613281 6.726562 0 11.609374 7.683594 11.609374 18.269531v64.292969l-22.484374 16.726563c.441406-3.429688.671874-6.933594.671874-10.496094 0-18.667969-6.191406-35.777344-17.433593-48.183594-12.28125-13.546875-29.386719-20.707031-49.464844-20.707031-38.992187 0-66.230469 28.328125-66.230469 68.890625 0 3.828125.246094 7.546875.71875 11.144531l-22.695312-16.878906v-64.789063c0-10.585937 4.886718-18.269531 11.613281-18.269531 22.945313 0 41.613281-18.667969 41.613281-41.613281 0-4.34375 0-11.613281 19.597656-11.613281zm-15.886719 180.910156c-26.714843 0-36.230469-20.089844-36.230469-38.890625s9.515626-38.890625 36.230469-38.890625c27.203125 0 36.894531 20.089844 36.894531 38.890625s-9.691406 38.890625-36.894531 38.890625zm-118.207031-66.9375-12.648438-9.40625 12.648438-9.433594zm41.613281-113.972656h13.144531c-1.273437 4.769531-1.53125 8.992187-1.53125 11.613281 0 6.402344-5.210937 11.613281-11.613281 11.613281-4.066406 0-7.953125.621094-11.613281 1.769531v-13.382812c0-6.402344 5.207031-11.613281 11.613281-11.613281zm206.917969 284.039062h-260.8125c-6.402344 0-11.613281-5.210937-11.613281-11.613281v-138.835938l142.019531 105.632813 142.019531-105.632813v138.835938c0 6.402344-5.210937 11.613281-11.613281 11.613281zm0 0"/></g></svg>